PathFileType	4	(X/Y/Z)	/Users/itak/Documents/Research/Walk-IL/dataset/trc/00565_00009.trc
DataRate	CameraRate	NumFrames	NumMarkers	Units	OrigDataRate	OrigDataStartFrame	OrigNumFrames
100.000000	100.000000	4	54	mm	100.000000	143	573
Frame#	Time	RPSI			LPSI			L3			STRN			T10			C7			CLAV			RBAK			LBAK			LSHO			LUPA			LAEL			LAOL			LWTS			LWPS			LFRA			LHPS			LHTS			RSHO			RUPA			RAEL			RAOL			RWTS			RWPS			RFRA			RIFD			RHTS			RHPS			RBHD			LFHD			RFHD			LBHD			RHIP			RASI			LASI			LKNE			LTHI			LANK			LTIP			LTOE			LMT1			LMT5			LHEE			RKNE			RTHI			RANK			RTIP			RTOE			RMT1			RMT5			RHEE			LHIP			LIFD			*53			
		X1	Y1	Z1	X2	Y2	Z2	X3	Y3	Z3	X4	Y4	Z4	X5	Y5	Z5	X6	Y6	Z6	X7	Y7	Z7	X8	Y8	Z8	X9	Y9	Z9	X10	Y10	Z10	X11	Y11	Z11	X12	Y12	Z12	X13	Y13	Z13	X14	Y14	Z14	X15	Y15	Z15	X16	Y16	Z16	X17	Y17	Z17	X18	Y18	Z18	X19	Y19	Z19	X20	Y20	Z20	X21	Y21	Z21	X22	Y22	Z22	X23	Y23	Z23	X24	Y24	Z24	X25	Y25	Z25	X26	Y26	Z26	X27	Y27	Z27	X28	Y28	Z28	X29	Y29	Z29	X30	Y30	Z30	X31	Y31	Z31	X32	Y32	Z32	X33	Y33	Z33	X34	Y34	Z34	X35	Y35	Z35	X36	Y36	Z36	X37	Y37	Z37	X38	Y38	Z38	X39	Y39	Z39	X40	Y40	Z40	X41	Y41	Z41	X42	Y42	Z42	X43	Y43	Z43	X44	Y44	Z44	X45	Y45	Z45	X46	Y46	Z46	X47	Y47	Z47	X48	Y48	Z48	X49	Y49	Z49	X50	Y50	Z50	X51	Y51	Z51	X52	Y52	Z52	X53	Y53	Z53	X54	Y54	Z54	

144	1.43	-1256.295776367188	1007.296630859375	-287.6216430664062	-1229.054443359375	1011.215393066406	-418.9621276855469	-1231.896606445312	1107.833740234375	-356.1216735839844	-986.6900634765625	1279.698852539062	-326.7865600585938	-1232.62353515625	1234.01318359375	-358.5529479980469	-1163.098266601562	1504.304931640625	-338.2982177734375	-996.9027709960938	1391.286865234375	-328.3298645019531	-1254.848510742188	1385.779052734375	-262.4623718261719	-1189.405883789062	1454.35400390625	-434.4553833007812	-1081.01025390625	1471.226440429688	-505.4942016601562	-1089.93310546875	1344.094116210938	-585.0557861328125	-1078.283081054688	1122.54296875	-605.6729736328125	-1167.651611328125	1116.683227539062	-559.1394653320312	-991.681396484375	881.293212890625	-554.3997802734375	-1037.438598632812	856.4319458007812	-625.8076782226562	-1058.217163085938	1035.925537109375	-611.2288208007812	-1031.268432617188	796.7465209960938	-617.814453125	-970.4013671875	807.4119262695312	-576.6036987304688	-1126.91943359375	1461.993896484375	-176.8408203125	-1156.491088867188	1397.672729492188	-112.4407806396484	-1179.82177734375	1108.683837890625	-70.612548828125	-1232.4150390625	1094.80029296875	-103.3192443847656	-1054.907104492188	879.9190673828125	-99.18229675292969	-1109.379272460938	862.2659301757812	-37.82426834106445	-1171.803833007812	1052.502685546875	-65.72885131835938	-1058.635498046875	705.991943359375	-96.67167663574219	-1035.061645507812	786.8720092773438	-81.88328552246094	-1097.048583984375	787.0147094726562	-38.79461669921875	-1073.128662109375	1678.968505859375	-258.7035217285156	-893.6453857421875	1676.512817382812	-362.6287841796875	-936.7919921875	1673.295654296875	-225.4378509521484	-1016.841735839844	1679.880493164062	-414.3452758789062	-1155.8828125	933.5584106445312	-145.5482177734375	-1059.809814453125	965.90673828125	-187.76611328125	-1011.932922363281	955.3592529296875	-461.8182678222656	-1066.11767578125	486.9202270507812	-446.8139038085938	-1060.434692382812	651.853759765625	-486.3975219726562	-1197.813232421875	28.26641082763672	-441.7251586914062	-1151.51025390625	244.1262664794922	-452.4690551757812	-996.2877807617188	36.99727249145508	-356.8285827636719	-1071.458251953125	39.66316986083984	-331.2554321289062	-1073.447998046875	32.04758453369141	-439.4853820800781	-1273.850219726562	29.91583251953125	-394.8243713378906	-1078.3544921875	493.0300598144531	-179.5272827148438	-1104.511108398438	781.3244018554688	-142.3290100097656	-1245.182739257812	46.9407844543457	-206.5593109130859	-1098.217529296875	346.9769287109375	-190.1016082763672	-1025.09765625	42.91174697875977	-212.2734527587891	-1081.185791015625	36.8211555480957	-263.1026916503906	-1119.904663085938	43.47174835205078	-168.4035034179688	-1292.978393554688	33.57460784912109	-265.0084533691406	-1081.358642578125	929.36328125	-526.134033203125	-1004.274047851562	710.17138671875	-558.1138916015625	nan	nan	nan	
145	1.44	-1254.465942382812	1006.975769042969	-287.9790344238281	-1226.880249023438	1011.179260253906	-419.2920837402344	-1229.805297851562	1107.6630859375	-356.3606872558594	-984.46044921875	1279.411743164062	-326.5108032226562	-1230.47216796875	1233.885131835938	-358.6502990722656	-1160.763061523438	1504.136108398438	-338.3611450195312	-994.6627197265625	1390.9970703125	-328.1138305664062	-1252.691284179688	1385.687622070312	-262.6384887695312	-1186.96630859375	1454.098388671875	-434.5020446777344	-1078.48486328125	1470.824340820312	-505.4167785644531	-1087.392578125	1343.705322265625	-584.9888305664062	-1075.702392578125	1122.217895507812	-605.84814453125	-1165.165771484375	1116.328857421875	-559.3822631835938	-989.468994140625	880.7496948242188	-554.984130859375	-1035.259033203125	856.117431640625	-626.4560546875	-1055.77587890625	1035.577392578125	-611.5359497070312	-1029.177368164062	796.3854370117188	-618.5592041015625	-968.12353515625	807.0299682617188	-577.360107421875	-1124.8525390625	1461.864868164062	-176.8140563964844	-1154.563232421875	1397.534790039062	-112.475212097168	-1178.062377929688	1108.498046875	-70.83653259277344	-1230.573120117188	1094.619384765625	-103.6878356933594	-1052.994140625	879.8346557617188	-99.28382110595703	-1107.626098632812	862.0862426757812	-38.07414245605469	-1170.045166015625	1052.323120117188	-65.97071838378906	-1056.667724609375	705.8795166015625	-96.97283935546875	-1033.164306640625	786.7787475585938	-82.06141662597656	-1095.257202148438	786.8257446289062	-39.09416580200195	-1070.5830078125	1678.874755859375	-258.8251342773438	-891.0794677734375	1676.110717773438	-362.6607666015625	-934.2713623046875	1673.111938476562	-225.4903717041016	-1014.237487792969	1679.542724609375	-414.4342956542969	-1153.971801757812	933.277587890625	-145.79736328125	-1058.093017578125	965.6527099609375	-188.0583343505859	-1009.7685546875	955.0850219726562	-461.9936218261719	-1065.682250976562	486.7008972167969	-447.4173278808594	-1059.318237304688	651.6315307617188	-486.8511962890625	-1197.909301757812	28.22177505493164	-441.7761535644531	-1151.484130859375	244.0249633789062	-452.6584777832031	-996.34521484375	37.02395248413086	-356.8689880371094	-1071.467041015625	39.66264724731445	-331.3616638183594	-1073.432495117188	31.9664134979248	-439.58203125	-1273.900390625	29.89543724060059	-394.8765563964844	-1071.4658203125	493.5186157226562	-179.2248077392578	-1100.923950195312	781.4037475585938	-142.8929138183594	-1244.109375	49.34014892578125	-206.9242095947266	-1092.84228515625	347.4493103027344	-189.7772979736328	-1024.41259765625	43.84803771972656	-211.8481903076172	-1080.190673828125	37.91196441650391	-262.9248657226562	-1119.21826171875	44.6828727722168	-168.3212432861328	-1291.80859375	36.45914077758789	-265.5559692382812	-1079.2177734375	929.2699584960938	-526.3619384765625	-1002.181701660156	709.7269287109375	-558.8346557617188	nan	nan	nan	
146	1.45	-1252.55859375	1006.751892089844	-288.3089294433594	-1224.630615234375	1011.194274902344	-419.5928344726562	-1227.636840820312	1107.575439453125	-356.5879516601562	-982.1803588867188	1279.18212890625	-326.1505737304688	-1228.2236328125	1233.819580078125	-358.7433471679688	-1158.359008789062	1504.023193359375	-338.3641052246094	-992.3688354492188	1390.753173828125	-327.8117065429688	-1250.477661132812	1385.656860351562	-262.7814331054688	-1184.444946289062	1453.907836914062	-434.4976196289062	-1075.863037109375	1470.4853515625	-505.2651062011719	-1084.724853515625	1343.388305664062	-584.8532104492188	-1072.953369140625	1121.958374023438	-605.929931640625	-1162.521240234375	1116.0361328125	-559.5542602539062	-987.1680908203125	880.2359008789062	-555.4818725585938	-1032.974853515625	855.8565063476562	-627.0354614257812	-1053.175415039062	1035.292846679688	-611.7493896484375	-1026.985107421875	796.0763549804688	-619.2310180664062	-965.8136596679688	806.6519775390625	-578.010986328125	-1122.75048828125	1461.797973632812	-176.7283630371094	-1152.616088867188	1397.45947265625	-112.4568176269531	-1176.267578125	1108.380737304688	-71.00286102294922	-1228.678955078125	1094.49560546875	-104.0196685791016	-1051.025512695312	879.8269653320312	-99.35018920898438	-1105.805786132812	861.9752807617188	-38.27892303466797	-1168.246704101562	1052.205078125	-66.15156555175781	-1054.624267578125	705.84619140625	-97.25246429443359	-1031.194702148438	786.76416015625	-82.22480773925781	-1093.385375976562	786.7156372070312	-39.35576629638672	-1067.970703125	1678.855590820312	-258.8741760253906	-888.4444580078125	1675.752563476562	-362.6223449707031	-931.6890869140625	1672.989990234375	-225.4686431884766	-1011.561645507812	1679.245849609375	-414.4571228027344	-1151.994506835938	933.1367797851562	-145.9912109375	-1056.317504882812	965.510986328125	-188.3197021484375	-1007.52685546875	954.8350219726562	-462.1167297363281	-1065.23388671875	486.4874572753906	-447.9417724609375	-1058.162475585938	651.3994750976562	-487.2135925292969	-1198.012573242188	28.2032299041748	-441.8231811523438	-1151.47216796875	243.9343414306641	-452.8149108886719	-996.3878784179688	37.05340194702148	-356.9092102050781	-1071.486206054688	39.65347290039062	-331.4591979980469	-1073.41845703125	31.90239143371582	-439.66259765625	-1273.940063476562	29.87415504455566	-394.9293823242188	-1064.357299804688	494.2153625488281	-178.8449554443359	-1097.261352539062	781.626953125	-143.3631134033203	-1242.656127929688	51.97244262695312	-207.3429718017578	-1087.20947265625	348.1499328613281	-189.4340972900391	-1023.317932128906	44.94066619873047	-211.4298248291016	-1078.775390625	39.17523193359375	-262.7913818359375	-1118.166870117188	46.13142395019531	-168.2391662597656	-1290.240844726562	39.59906768798828	-266.1793823242188	-1077.010986328125	929.1669311523438	-526.5308837890625	-1000.068237304688	709.2733154296875	-559.4337158203125	nan	nan	nan	
147	1.46	-1250.5625	1006.630920410156	-288.6054077148438	-1222.3056640625	1011.261596679688	-419.8570251464844	-1225.38232421875	1107.570556640625	-356.8025817871094	-979.8467407226562	1279.008544921875	-325.7140502929688	-1225.871337890625	1233.81640625	-358.834716796875	-1155.879272460938	1503.965698242188	-338.3086853027344	-990.0140380859375	1390.556640625	-327.4287719726562	-1248.19970703125	1385.685668945312	-262.8914794921875	-1181.8349609375	1453.786010742188	-434.4461669921875	-1073.140380859375	1470.217041015625	-505.04248046875	-1081.921142578125	1343.151977539062	-584.6538696289062	-1070.031127929688	1121.773559570312	-605.9212646484375	-1159.708740234375	1115.813720703125	-559.661865234375	-984.7764892578125	879.75830078125	-555.8760375976562	-1030.571411132812	855.6544189453125	-627.5342407226562	-1050.404052734375	1035.076538085938	-611.8651123046875	-1024.6767578125	795.8211669921875	-619.8136596679688	-963.4623413085938	806.2865600585938	-578.5448608398438	-1120.603637695312	1461.7919921875	-176.5881500244141	-1150.639404296875	1397.447509765625	-112.3884353637695	-1174.439208984375	1108.334350585938	-71.11184692382812	-1226.738403320312	1094.433715820312	-104.3084716796875	-1049.005615234375	879.8984375	-99.37566375732422	-1103.922485351562	861.9362182617188	-38.43355178833008	-1166.412841796875	1052.152954101562	-66.26931762695312	-1052.50927734375	705.8948974609375	-97.49840545654297	-1029.156616210938	786.8284301757812	-82.361083984375	-1091.438598632812	786.6869506835938	-39.57296371459961	-1065.28955078125	1678.906616210938	-258.8445739746094	-885.7366943359375	1675.439208984375	-362.5083312988281	-929.041259765625	1672.925903320312	-225.367431640625	-1008.812438964844	1678.994262695312	-414.4074401855469	-1149.936889648438	933.1447143554688	-146.1269073486328	-1054.466552734375	965.489501953125	-188.5436706542969	-1005.21337890625	954.6063232421875	-462.1922302246094	-1064.786499023438	486.2754211425781	-448.3935546875	-1056.97802734375	651.1574096679688	-487.4926452636719	-1198.117553710938	28.20594024658203	-441.8648376464844	-1151.4755859375	243.8551025390625	-452.9443969726562	-996.4141845703125	37.08880996704102	-356.9480590820312	-1071.515258789062	39.64080810546875	-331.55078125	-1073.406372070312	31.85673713684082	-439.7291259765625	-1273.969970703125	29.85270500183105	-394.9813232421875	-1057.070190429688	495.1152648925781	-178.3733367919922	-1093.548706054688	781.9991455078125	-143.7140502929688	-1240.72802734375	54.78041839599609	-207.8090972900391	-1081.319091796875	349.0699157714844	-189.0643157958984	-1021.708068847656	46.17641830444336	-211.0279693603516	-1076.844848632812	40.59496688842773	-262.7042846679688	-1116.642822265625	47.79328536987305	-168.1645812988281	-1288.179931640625	42.9163703918457	-266.8659057617188	-1074.751586914062	929.0574340820312	-526.6464233398438	-997.9193725585938	708.8236694335938	-559.9024047851562	nan	nan	nan	
